<svg width="321" height="94" viewBox="0 0 321 94" xmlns="http://www.w3.org/2000/svg">
    <path d="M13.5 79.5c-3.6 0-6.43-1-8.5-3-2.07-2-3.1-4.72-3.1-8.15h5.35c0 2.03.55 3.62 1.65 4.75 1.1 1.1 2.63 1.65 4.6 1.65 1.97 0 3.5-.55 4.6-1.65 1.1-1.13 1.65-2.7 1.65-4.7V47.45h-8.6V42.5H25.1v25.9c0 3.43-1.05 6.15-3.15 8.15-2.07 1.97-4.88 2.95-8.45 2.95Zm23.98 0c-2.87 0-5.13-.73-6.8-2.2-1.63-1.5-2.45-3.53-2.45-6.1 0-2.6.87-4.63 2.6-6.1 1.77-1.5 4.18-2.25 7.25-2.25h7.65V60.3c0-1.5-.47-2.67-1.4-3.5-.93-.83-2.25-1.25-3.95-1.25-1.5 0-2.75.33-3.75 1a3.6 3.6 0 0 0-1.75 2.55h-5.3a8.32 8.32 0 0 1 3.4-5.9c2-1.47 4.52-2.2 7.55-2.2 3.27 0 5.85.83 7.75 2.5 1.9 1.63 2.85 3.87 2.85 6.7V79h-5.25v-5.05h-.9l.9-1c0 2-.77 3.6-2.3 4.8-1.53 1.17-3.57 1.75-6.1 1.75Zm1.6-4.15c1.93 0 3.52-.48 4.75-1.45 1.27-1 1.9-2.27 1.9-3.8v-3.6h-7.55c-1.4 0-2.52.38-3.35 1.15-.8.77-1.2 1.82-1.2 3.15 0 1.4.48 2.52 1.45 3.35.97.8 2.3 1.2 4 1.2ZM54.66 88V51.5h5.35v5.25h1.15L60.01 58c0-2.17.67-3.87 2-5.1 1.37-1.27 3.18-1.9 5.45-1.9 2.77 0 4.97.93 6.6 2.8 1.67 1.83 2.5 4.35 2.5 7.55v7.75c0 2.13-.38 3.98-1.15 5.55a8.5 8.5 0 0 1-3.15 3.6 8.88 8.88 0 0 1-4.8 1.25c-2.23 0-4.03-.62-5.4-1.85a6.68 6.68 0 0 1-2.05-5.15l1.15 1.25h-1.25l.15 6.4V88h-5.4Zm10.95-13.2c1.77 0 3.13-.5 4.1-1.5 1-1.03 1.5-2.52 1.5-4.45v-7.2c0-1.93-.5-3.4-1.5-4.4-.97-1.03-2.33-1.55-4.1-1.55-1.7 0-3.05.53-4.05 1.6-1 1.03-1.5 2.48-1.5 4.35v7.2c0 1.87.5 3.33 1.5 4.4a5.37 5.37 0 0 0 4.05 1.55Zm22.33 4.7c-2.87 0-5.13-.73-6.8-2.2-1.63-1.5-2.45-3.53-2.45-6.1 0-2.6.87-4.63 2.6-6.1 1.77-1.5 4.18-2.25 7.25-2.25h7.65V60.3c0-1.5-.47-2.67-1.4-3.5-.93-.83-2.25-1.25-3.95-1.25-1.5 0-2.75.33-3.75 1a3.6 3.6 0 0 0-1.75 2.55h-5.3a8.32 8.32 0 0 1 3.4-5.9c2-1.47 4.52-2.2 7.55-2.2 3.27 0 5.85.83 7.75 2.5 1.9 1.63 2.85 3.87 2.85 6.7V79h-5.25v-5.05h-.9l.9-1c0 2-.77 3.6-2.3 4.8-1.53 1.17-3.57 1.75-6.1 1.75Zm1.6-4.15c1.93 0 3.52-.48 4.75-1.45 1.27-1 1.9-2.27 1.9-3.8v-3.6h-7.55c-1.4 0-2.52.38-3.35 1.15-.8.77-1.2 1.82-1.2 3.15 0 1.4.48 2.52 1.45 3.35.97.8 2.3 1.2 4 1.2ZM105.12 79V51.5h5.35v5.25h1.3l-1.3 1.25c0-2.2.65-3.92 1.95-5.15 1.3-1.23 3.1-1.85 5.4-1.85 2.74 0 4.92.88 6.55 2.65 1.63 1.73 2.45 4.08 2.45 7.05V79h-5.4V61.3c0-1.8-.48-3.18-1.45-4.15a5.34 5.34 0 0 0-3.95-1.45c-1.7 0-3.05.52-4.05 1.55-.97 1-1.45 2.47-1.45 4.4V79h-5.4Zm36.03.5c-2.23 0-4.2-.43-5.9-1.3a9.49 9.49 0 0 1-3.85-3.75c-.9-1.6-1.35-3.47-1.35-5.6v-7.2c0-2.17.45-4.03 1.35-5.6a9.17 9.17 0 0 1 3.85-3.7c1.7-.9 3.67-1.35 5.9-1.35 2.27 0 4.24.45 5.9 1.35a9.16 9.16 0 0 1 3.85 3.7c.9 1.57 1.35 3.43 1.35 5.6v4.9h-17v2.3c0 2.03.5 3.58 1.5 4.65 1.04 1.07 2.52 1.6 4.45 1.6 1.57 0 2.84-.27 3.8-.8a3.64 3.64 0 0 0 1.8-2.45h5.35a8.33 8.33 0 0 1-3.6 5.6c-2 1.37-4.46 2.05-7.4 2.05Zm5.9-16.2v-1.7c0-2-.5-3.55-1.5-4.65-1-1.1-2.46-1.65-4.4-1.65-1.9 0-3.36.55-4.4 1.65-1 1.1-1.5 2.67-1.5 4.7v1.25l12.2-.05-.4.45Zm18.38 16.15c-1.96 0-3.7-.32-5.2-.95a8.77 8.77 0 0 1-3.5-2.6 7.73 7.73 0 0 1-1.45-4h5.4c.14.9.62 1.63 1.45 2.2.84.53 1.94.8 3.3.8h2.15c1.64 0 2.87-.33 3.7-1a3.23 3.23 0 0 0 1.25-2.65 3 3 0 0 0-1.15-2.5 6.3 6.3 0 0 0-3.3-1.25l-3.55-.55c-2.93-.47-5.1-1.3-6.5-2.5-1.36-1.23-2.05-3.05-2.05-5.45 0-2.53.82-4.48 2.45-5.85 1.67-1.4 4.12-2.1 7.35-2.1h1.9c2.87 0 5.15.67 6.85 2a7.24 7.24 0 0 1 2.95 5.25h-5.4a2.84 2.84 0 0 0-1.35-1.95 5.36 5.36 0 0 0-3.05-.75h-1.9c-1.56 0-2.71.3-3.45.9-.7.57-1.05 1.42-1.05 2.55 0 1 .32 1.75.95 2.25.64.5 1.62.85 2.95 1.05l3.65.6c3.1.43 5.37 1.3 6.8 2.6 1.47 1.27 2.2 3.12 2.2 5.55 0 2.63-.86 4.68-2.6 6.15-1.7 1.47-4.25 2.2-7.65 2.2h-2.15Zm26.18.05c-2.23 0-4.2-.43-5.9-1.3a9.49 9.49 0 0 1-3.85-3.75c-.9-1.6-1.35-3.47-1.35-5.6v-7.2c0-2.17.45-4.03 1.35-5.6a9.17 9.17 0 0 1 3.85-3.7c1.7-.9 3.67-1.35 5.9-1.35 2.27 0 4.24.45 5.9 1.35a9.16 9.16 0 0 1 3.85 3.7c.9 1.57 1.35 3.43 1.35 5.6v4.9h-17v2.3c0 2.03.5 3.58 1.5 4.65 1.04 1.07 2.52 1.6 4.45 1.6 1.57 0 2.84-.27 3.8-.8a3.64 3.64 0 0 0 1.8-2.45h5.35a8.33 8.33 0 0 1-3.6 5.6c-2 1.37-4.46 2.05-7.4 2.05Zm5.9-16.2v-1.7c0-2-.5-3.55-1.5-4.65-1-1.1-2.46-1.65-4.4-1.65-1.9 0-3.36.55-4.4 1.65-1 1.1-1.5 2.67-1.5 4.7v1.25l12.2-.05-.4.45Z" fill="#323232"/>
    <path d="M218.06 79V43.23h6.51l3.58 11.47a46.73 46.73 0 0 1 1.47 5.34l.54-2.2c.26-1.02.56-2.07.88-3.14l3.43-11.47H241V79h-5V66.95c0-1.54.03-3.24.1-5.1.1-1.9.23-3.79.4-5.68a615.3 615.3 0 0 1 .92-10.1l-5.29 17.4h-5.1l-5.39-17.4a181.48 181.48 0 0 1 .93 9.8c.14 1.9.25 3.8.35 5.73.1 1.9.15 3.68.15 5.35V79h-5Zm36.68.44c-2.22 0-4.15-.42-5.78-1.27a8.98 8.98 0 0 1-3.78-3.63 11.11 11.11 0 0 1-1.32-5.54v-6.95c0-2.16.44-4 1.32-5.54a8.98 8.98 0 0 1 3.78-3.63 12.37 12.37 0 0 1 5.78-1.27c2.22 0 4.15.42 5.78 1.27a8.98 8.98 0 0 1 3.78 3.63 10.94 10.94 0 0 1 1.32 5.54V69c0 2.13-.44 3.97-1.32 5.54a8.98 8.98 0 0 1-3.78 3.63 12.37 12.37 0 0 1-5.78 1.27Zm0-4.65c1.8 0 3.19-.5 4.16-1.47.99-1.02 1.48-2.45 1.48-4.32v-6.95c0-1.9-.5-3.34-1.48-4.32-.97-.98-2.36-1.47-4.16-1.47-1.76 0-3.15.5-4.17 1.47-.97.98-1.47 2.42-1.47 4.32V69c0 1.87.5 3.3 1.47 4.32a5.74 5.74 0 0 0 4.17 1.47Zm12.67 13.03v-4.9h6.76c1.8 0 3.2-.49 4.22-1.47 1.01-.98 1.52-2.37 1.52-4.17V56.9h-11.03v-4.85h16.32v25.28c0 3.24-.98 5.79-2.94 7.65-1.96 1.9-4.6 2.84-7.94 2.84h-6.9Zm14.9-40.42c-1.14 0-2.06-.3-2.75-.89a3.15 3.15 0 0 1-1.02-2.45c0-1.04.34-1.86 1.02-2.45.69-.62 1.6-.93 2.75-.93 1.14 0 2.06.31 2.74.93.69.6 1.03 1.4 1.03 2.45 0 1.02-.34 1.83-1.03 2.45-.68.6-1.6.89-2.74.89ZM294.69 79v-4.8h9.45V56.85h-8.23v-4.8h13.38V74.2h8.67V79H294.7Zm11.51-31.6c-1.14 0-2.06-.3-2.74-.89a3.15 3.15 0 0 1-1.03-2.45c0-1.04.34-1.86 1.03-2.45.68-.62 1.6-.93 2.74-.93 1.14 0 2.06.31 2.75.93.68.6 1.02 1.4 1.02 2.45 0 1.02-.34 1.83-1.03 2.45-.68.6-1.6.89-2.74.89ZM259.27 10.35c-2.6 8.15-7.97 12.78-16.62 15.05.6.73 1.55 2.18 1.9 2.93 8.95-2.8 14.77-8.05 17.93-17.05l-3.2-.93Zm-9.64.2-3 .9c3.12 8.65 8.27 14.38 17.64 16.82.48-.87 1.46-2.3 2.18-3-8.9-2-14.3-7.32-16.82-14.72Zm-6.53-1.83v2.96H266V8.71h-22.9Zm9.83-3.95v5.76h3.1V4.78h-3.1ZM272.85 12v2.72h11.17V12h-11.17Zm-4.28 6.2v2.85h21.9V18.2h-21.9Zm9.28-1.6v8.13c0 .34-.13.45-.63.47-.5.03-2.4 0-3.92-.07.5.82 1.1 2.17 1.3 3.07 2.07 0 3.67-.05 4.88-.5 1.22-.45 1.6-1.27 1.6-2.88V16.6h-3.23Zm5.25-4.6v.57a16.37 16.37 0 0 1-4.55 4.28c.43.4 1.22 1.17 1.57 1.67a23.34 23.34 0 0 0 6.38-5.17l-1.93-1.5-.67.15h-.8Zm-5.25-7.22v4.54h3.2V4.78h-3.2Zm-9.18 2.4v6.5h2.95V10h15.56v3.68h3.1v-6.5h-21.6Z" fill="#ECC94B"/>
</svg>
