<svg width="493" height="215" fill="none" xmlns="http://www.w3.org/2000/svg">
    <path fill="#fff" d="M0 0h493v215H0z"/>
    <path d="M99.5 128.5c-3.6 0-6.43-1-8.5-3-2.07-2-3.1-4.72-3.1-8.15h5.35c0 2.03.55 3.62 1.65 4.75 1.1 1.1 2.63 1.65 4.6 1.65 1.97 0 3.5-.55 4.6-1.65 1.1-1.13 1.65-2.7 1.65-4.7V96.45h-8.6V91.5h13.95v25.9c0 3.43-1.05 6.15-3.15 8.15-2.07 1.97-4.88 2.95-8.45 2.95Zm23.98 0c-2.87 0-5.13-.73-6.8-2.2-1.63-1.5-2.45-3.53-2.45-6.1 0-2.6.87-4.63 2.6-6.1 1.77-1.5 4.18-2.25 7.25-2.25h7.65v-2.55c0-1.5-.47-2.67-1.4-3.5-.93-.83-2.25-1.25-3.95-1.25-1.5 0-2.75.33-3.75 1a3.6 3.6 0 0 0-1.75 2.55h-5.3a8.32 8.32 0 0 1 3.4-5.9c2-1.47 4.52-2.2 7.55-2.2 3.27 0 5.85.83 7.75 2.5 1.9 1.63 2.85 3.87 2.85 6.7V128h-5.25v-5.05h-.9l.9-1c0 2-.77 3.6-2.3 4.8-1.53 1.17-3.57 1.75-6.1 1.75Zm1.6-4.15c1.93 0 3.52-.48 4.75-1.45 1.27-1 1.9-2.27 1.9-3.8v-3.6h-7.55c-1.4 0-2.52.38-3.35 1.15-.8.77-1.2 1.82-1.2 3.15 0 1.4.48 2.52 1.45 3.35.97.8 2.3 1.2 4 1.2ZM140.66 137v-36.5h5.35v5.25h1.15l-1.15 1.25c0-2.17.67-3.87 2-5.1 1.37-1.27 3.18-1.9 5.45-1.9 2.77 0 4.97.93 6.6 2.8 1.67 1.83 2.5 4.35 2.5 7.55v7.75c0 2.13-.38 3.98-1.15 5.55a8.5 8.5 0 0 1-3.15 3.6 8.88 8.88 0 0 1-4.8 1.25c-2.23 0-4.03-.62-5.4-1.85a6.68 6.68 0 0 1-2.05-5.15l1.15 1.25h-1.25l.15 6.4V137h-5.4Zm10.95-13.2c1.77 0 3.13-.5 4.1-1.5 1-1.03 1.5-2.52 1.5-4.45v-7.2c0-1.93-.5-3.4-1.5-4.4-.97-1.03-2.33-1.55-4.1-1.55-1.7 0-3.05.53-4.05 1.6-1 1.03-1.5 2.48-1.5 4.35v7.2c0 1.87.5 3.33 1.5 4.4a5.38 5.38 0 0 0 4.05 1.55Zm22.33 4.7c-2.87 0-5.13-.73-6.8-2.2-1.63-1.5-2.45-3.53-2.45-6.1 0-2.6.87-4.63 2.6-6.1 1.77-1.5 4.19-2.25 7.25-2.25h7.65v-2.55c0-1.5-.47-2.67-1.4-3.5-.93-.83-2.25-1.25-3.95-1.25-1.5 0-2.75.33-3.75 1a3.6 3.6 0 0 0-1.75 2.55h-5.3a8.32 8.32 0 0 1 3.4-5.9c2-1.47 4.52-2.2 7.55-2.2 3.27 0 5.85.83 7.75 2.5 1.9 1.63 2.85 3.87 2.85 6.7V128h-5.25v-5.05h-.9l.9-1c0 2-.77 3.6-2.3 4.8-1.53 1.17-3.56 1.75-6.1 1.75Zm1.6-4.15c1.94 0 3.52-.48 4.75-1.45 1.27-1 1.9-2.27 1.9-3.8v-3.6h-7.55c-1.4 0-2.51.38-3.35 1.15-.8.77-1.2 1.82-1.2 3.15 0 1.4.48 2.52 1.45 3.35.97.8 2.3 1.2 4 1.2Zm15.58 3.65v-27.5h5.35v5.25h1.3l-1.3 1.25c0-2.2.65-3.92 1.95-5.15 1.3-1.23 3.1-1.85 5.4-1.85 2.74 0 4.92.88 6.55 2.65 1.63 1.73 2.45 4.08 2.45 7.05V128h-5.4v-17.7c0-1.8-.48-3.18-1.45-4.15a5.34 5.34 0 0 0-3.95-1.45c-1.7 0-3.05.52-4.05 1.55-.97 1-1.45 2.47-1.45 4.4V128h-5.4Zm36.03.5c-2.23 0-4.2-.43-5.9-1.3a9.49 9.49 0 0 1-3.85-3.75c-.9-1.6-1.35-3.47-1.35-5.6v-7.2c0-2.17.45-4.03 1.35-5.6a9.17 9.17 0 0 1 3.85-3.7c1.7-.9 3.67-1.35 5.9-1.35 2.27 0 4.24.45 5.9 1.35a9.16 9.16 0 0 1 3.85 3.7c.9 1.57 1.35 3.43 1.35 5.6v4.9h-17v2.3c0 2.03.5 3.58 1.5 4.65 1.04 1.07 2.52 1.6 4.45 1.6 1.57 0 2.84-.27 3.8-.8a3.64 3.64 0 0 0 1.8-2.45h5.35a8.33 8.33 0 0 1-3.6 5.6c-2 1.37-4.46 2.05-7.4 2.05Zm5.9-16.2v-1.7c0-2-.5-3.55-1.5-4.65-1-1.1-2.46-1.65-4.4-1.65-1.9 0-3.36.55-4.4 1.65-1 1.1-1.5 2.67-1.5 4.7v1.25l12.2-.05-.4.45Zm18.38 16.15c-1.96 0-3.7-.32-5.2-.95a8.77 8.77 0 0 1-3.5-2.6 7.73 7.73 0 0 1-1.45-4h5.4c.14.9.62 1.63 1.45 2.2.84.53 1.94.8 3.3.8h2.15c1.64 0 2.87-.33 3.7-1a3.23 3.23 0 0 0 1.25-2.65 3 3 0 0 0-1.15-2.5 6.3 6.3 0 0 0-3.3-1.25l-3.55-.55c-2.93-.47-5.1-1.3-6.5-2.5-1.36-1.23-2.05-3.05-2.05-5.45 0-2.53.82-4.48 2.45-5.85 1.67-1.4 4.12-2.1 7.35-2.1h1.9c2.87 0 5.15.67 6.85 2a7.24 7.24 0 0 1 2.95 5.25h-5.4a2.84 2.84 0 0 0-1.35-1.95 5.36 5.36 0 0 0-3.05-.75h-1.9c-1.56 0-2.71.3-3.45.9-.7.57-1.05 1.42-1.05 2.55 0 1 .32 1.75.95 2.25.64.5 1.62.85 2.95 1.05l3.65.6c3.1.43 5.37 1.3 6.8 2.6 1.47 1.27 2.2 3.12 2.2 5.55 0 2.63-.86 4.68-2.6 6.15-1.7 1.47-4.25 2.2-7.65 2.2h-2.15Zm26.18.05c-2.23 0-4.2-.43-5.9-1.3a9.49 9.49 0 0 1-3.85-3.75c-.9-1.6-1.35-3.47-1.35-5.6v-7.2c0-2.17.45-4.03 1.35-5.6a9.17 9.17 0 0 1 3.85-3.7c1.7-.9 3.67-1.35 5.9-1.35 2.27 0 4.24.45 5.9 1.35a9.16 9.16 0 0 1 3.85 3.7c.9 1.57 1.35 3.43 1.35 5.6v4.9h-17v2.3c0 2.03.5 3.58 1.5 4.65 1.04 1.07 2.52 1.6 4.45 1.6 1.57 0 2.84-.27 3.8-.8a3.64 3.64 0 0 0 1.8-2.45h5.35a8.33 8.33 0 0 1-3.6 5.6c-2 1.37-4.46 2.05-7.4 2.05Zm5.9-16.2v-1.7c0-2-.5-3.55-1.5-4.65-1-1.1-2.46-1.65-4.4-1.65-1.9 0-3.36.55-4.4 1.65-1 1.1-1.5 2.67-1.5 4.7v1.25l12.2-.05-.4.45Z" fill="#323232"/>
    <path d="M304.06 128V92.23h6.51l3.58 11.47a46.68 46.68 0 0 1 1.47 5.34l.54-2.2c.26-1.02.56-2.07.88-3.14l3.43-11.47H327V128h-5v-12.05c0-1.54.03-3.24.1-5.1.1-1.9.23-3.79.4-5.68a615.3 615.3 0 0 1 .92-10.1l-5.29 17.4h-5.1l-5.38-17.4a181.4 181.4 0 0 1 .93 9.8c.13 1.9.24 3.8.34 5.73.1 1.9.15 3.68.15 5.35V128h-5Zm36.68.44c-2.22 0-4.15-.42-5.78-1.27a8.98 8.98 0 0 1-3.77-3.63 11.11 11.11 0 0 1-1.33-5.54v-6.95c0-2.16.44-4 1.32-5.54a8.98 8.98 0 0 1 3.78-3.63 12.38 12.38 0 0 1 5.78-1.27c2.22 0 4.15.42 5.78 1.27a8.98 8.98 0 0 1 3.78 3.63 10.94 10.94 0 0 1 1.32 5.54V118c0 2.13-.44 3.97-1.32 5.54a8.98 8.98 0 0 1-3.78 3.63 12.38 12.38 0 0 1-5.78 1.27Zm0-4.65c1.8 0 3.19-.5 4.16-1.47.99-1.02 1.48-2.45 1.48-4.32v-6.95c0-1.9-.5-3.34-1.48-4.32-.97-.98-2.36-1.47-4.16-1.47-1.76 0-3.15.5-4.17 1.47-.97.98-1.46 2.42-1.46 4.32V118c0 1.87.49 3.3 1.46 4.32a5.74 5.74 0 0 0 4.17 1.47Zm12.67 13.03v-4.9h6.76c1.8 0 3.2-.49 4.22-1.47 1.01-.98 1.52-2.37 1.52-4.16V105.9h-11.03v-4.85h16.32v25.28c0 3.24-.98 5.79-2.94 7.65-1.96 1.9-4.6 2.84-7.94 2.84h-6.9Zm14.9-40.42c-1.14 0-2.06-.3-2.75-.89a3.15 3.15 0 0 1-1.02-2.45c0-1.04.34-1.86 1.02-2.45.69-.62 1.6-.93 2.75-.93 1.14 0 2.06.31 2.74.93.69.6 1.03 1.4 1.03 2.45 0 1.02-.34 1.83-1.03 2.45-.68.6-1.6.88-2.74.88Zm12.38 31.6v-4.8h9.45v-17.35h-8.23v-4.8h13.38v22.15h8.67v4.8H380.7Zm11.51-31.6c-1.14 0-2.06-.3-2.74-.89a3.15 3.15 0 0 1-1.03-2.45c0-1.04.34-1.86 1.03-2.45.68-.62 1.6-.93 2.74-.93 1.14 0 2.06.31 2.75.93.68.6 1.02 1.4 1.02 2.45 0 1.02-.34 1.83-1.03 2.45-.68.6-1.6.88-2.74.88Z" fill="#ECC94B"/>
    <path d="m88.56 157 2.42-9.49h1.84l2.42 9.49h-1.42l-.57-2.4h-2.69L90 157h-1.43Zm2.26-3.56h2.16l-.65-2.75a108.9 108.9 0 0 1-.43-2l-.14.74c-.07.36-.17.78-.29 1.25l-.65 2.76Zm15.89 3.56c-.65 0-1.16-.18-1.52-.53a1.97 1.97 0 0 1-.55-1.48v-3.87h-1.97v-1.27h1.97v-2.01h1.4v2.01h2.8v1.27h-2.8V155c0 .49.24.74.72.74h1.95V157h-2Zm6.23.12c-.58 0-1.1-.12-1.53-.34a2.38 2.38 0 0 1-1-.96c-.23-.42-.35-.9-.35-1.47v-1.85c0-.57.12-1.06.35-1.47.23-.41.57-.73 1-.96.43-.22.95-.34 1.53-.34.6 0 1.1.12 1.54.34.43.23.77.55 1 .96.23.41.35.9.35 1.47v1.85c0 .56-.12 1.05-.35 1.47-.23.41-.57.73-1 .96-.44.22-.95.34-1.54.34Zm0-1.24c.48 0 .85-.13 1.11-.39.26-.27.39-.65.39-1.14v-1.85c0-.5-.13-.88-.39-1.14-.26-.26-.63-.4-1.1-.4-.47 0-.84.14-1.11.4-.26.26-.39.64-.39 1.14v1.85c0 .5.13.87.39 1.14.27.26.64.4 1.1.4Zm7.02 1.24c-.59 0-1.1-.12-1.53-.34a2.38 2.38 0 0 1-1-.96c-.24-.42-.36-.9-.36-1.47v-1.85c0-.57.12-1.06.36-1.47.23-.41.56-.73 1-.96.43-.22.94-.34 1.53-.34.59 0 1.1.12 1.53.34.44.23.77.55 1 .96.24.41.36.9.36 1.47v1.85c0 .56-.12 1.05-.35 1.47-.24.41-.57.73-1 .96-.44.22-.95.34-1.54.34Zm0-1.24c.48 0 .85-.13 1.1-.39.27-.27.4-.65.4-1.14v-1.85c0-.5-.13-.88-.4-1.14-.25-.26-.62-.4-1.1-.4-.47 0-.84.14-1.1.4-.27.26-.4.64-.4 1.14v1.85c0 .5.14.87.4 1.14.26.26.63.4 1.1.4ZM128 157c-.44 0-.83-.09-1.16-.26a2 2 0 0 1-.78-.77 2.33 2.33 0 0 1-.27-1.14v-6.05h-2.34v-1.27h3.75v7.32c0 .28.07.5.23.66.16.16.37.24.64.24h2.2V157H128Zm3.22 0v-9.49h1.4v5.21h1.27l1.9-2.87h1.58l-2.28 3.43 2.32 3.72h-1.61l-1.91-3.07h-1.26V157h-1.4Zm6.94 0v-1.27h2.5v-4.6h-2.18v-1.28h3.55v5.88h2.3V157h-6.17Zm3.05-8.38c-.3 0-.54-.08-.73-.24a.83.83 0 0 1-.27-.65c0-.28.1-.5.27-.65.19-.16.43-.25.73-.25s.55.09.73.25c.18.16.27.37.27.65 0 .27-.09.49-.27.65-.18.16-.42.24-.73.24Zm7.59 8.38c-.65 0-1.16-.18-1.52-.53a1.97 1.97 0 0 1-.55-1.48v-3.87h-1.97v-1.27h1.97v-2.01h1.4v2.01h2.8v1.27h-2.8V155c0 .49.25.74.72.74h1.95V157h-2Zm14.03 0c-.65 0-1.16-.18-1.52-.53a1.97 1.97 0 0 1-.55-1.48v-3.87h-1.97v-1.27h1.97v-2.01h1.4v2.01h2.8v1.27h-2.8V155c0 .49.25.74.72.74h1.95V157h-2Zm6.23.12c-.59 0-1.1-.12-1.53-.34a2.38 2.38 0 0 1-1-.96c-.24-.42-.35-.9-.35-1.47v-1.85c0-.57.11-1.06.35-1.47.23-.41.57-.73 1-.96.43-.22.94-.34 1.53-.34.6 0 1.1.12 1.54.34.43.23.77.55 1 .96.23.41.35.9.35 1.47v1.85c0 .56-.12 1.05-.35 1.47-.23.41-.57.73-1 .96-.44.22-.95.34-1.54.34Zm0-1.24c.48 0 .85-.13 1.1-.39.27-.27.4-.65.4-1.14v-1.85c0-.5-.13-.88-.4-1.14-.25-.26-.62-.4-1.1-.4-.46 0-.83.14-1.1.4-.26.26-.4.64-.4 1.14v1.85c0 .5.14.87.4 1.14.27.26.64.4 1.1.4Zm13.11 1.12-2.36-7.15h1.43l1.46 4.58a11.3 11.3 0 0 1 .42 1.46l.17-.65.23-.81 1.45-4.58h1.41l-2.36 7.15h-1.85Zm7.22.13c-.74 0-1.33-.2-1.76-.57a2.05 2.05 0 0 1-.64-1.59c0-.67.22-1.2.67-1.58a2.82 2.82 0 0 1 1.89-.59h1.99v-.66c0-.4-.12-.7-.36-.91a1.49 1.49 0 0 0-1.03-.33c-.4 0-.72.09-.98.26a.93.93 0 0 0-.45.67h-1.38c.08-.65.37-1.16.88-1.54a3.23 3.23 0 0 1 1.97-.57c.85 0 1.52.22 2.01.65.5.42.74 1 .74 1.74V157h-1.36v-1.31h-.24l.24-.26c0 .52-.2.93-.6 1.25-.4.3-.93.45-1.59.45Zm.42-1.08c.5 0 .91-.13 1.23-.38.33-.26.5-.58.5-.98v-.94h-1.96c-.37 0-.66.1-.88.3-.2.2-.3.47-.3.82 0 .36.12.65.37.87.25.2.6.31 1.04.31Zm8.34.95c-.44 0-.83-.09-1.16-.26a2 2 0 0 1-.78-.77 2.33 2.33 0 0 1-.27-1.14v-6.05h-2.34v-1.27h3.75v7.32c0 .28.07.5.23.66.16.16.37.24.64.24h2.2V157h-2.27Zm3.14 0v-1.27h2.51v-4.6h-2.18v-1.28h3.55v5.88h2.3V157h-6.18Zm3.06-8.38c-.3 0-.55-.08-.73-.24a.83.83 0 0 1-.27-.65c0-.28.09-.5.27-.65.18-.16.42-.25.73-.25.3 0 .54.09.72.25.19.16.28.37.28.65 0 .27-.1.49-.28.65-.18.16-.42.24-.72.24Zm6.3 8.51a2.2 2.2 0 0 1-1.73-.73 2.84 2.84 0 0 1-.65-1.96v-2.02c0-.83.21-1.49.65-1.97.43-.49 1-.73 1.73-.73.59 0 1.05.16 1.4.5.35.31.52.76.52 1.32l-.3-.32h.33l-.04-1.67v-2.04h1.4V157h-1.39v-1.37h-.3l.3-.32c0 .56-.17 1.01-.52 1.34-.35.32-.81.48-1.4.48Zm.48-1.22c.44 0 .79-.14 1.04-.4.26-.28.39-.66.39-1.15v-1.87c0-.49-.13-.86-.4-1.13-.24-.28-.59-.42-1.03-.42-.46 0-.82.14-1.08.4-.26.26-.4.65-.4 1.15v1.87c0 .5.14.89.4 1.16.26.26.62.39 1.08.39Zm6.32 1.22c-.74 0-1.33-.2-1.76-.57a2.05 2.05 0 0 1-.64-1.59c0-.67.22-1.2.67-1.58a2.82 2.82 0 0 1 1.89-.59h1.99v-.66c0-.4-.12-.7-.36-.91a1.49 1.49 0 0 0-1.03-.33c-.4 0-.72.09-.98.26a.93.93 0 0 0-.45.67h-1.38c.08-.65.37-1.16.88-1.54a3.23 3.23 0 0 1 1.97-.57c.85 0 1.52.22 2.01.65.5.42.74 1 .74 1.74V157h-1.36v-1.31h-.24l.24-.26c0 .52-.2.93-.6 1.25-.4.3-.93.45-1.59.45Zm.42-1.08c.5 0 .91-.13 1.23-.38.33-.26.5-.58.5-.98v-.94h-1.96c-.37 0-.66.1-.88.3-.2.2-.3.47-.3.82 0 .36.12.65.37.87.25.2.6.31 1.04.31Zm8.1.95c-.66 0-1.16-.18-1.53-.53a1.97 1.97 0 0 1-.54-1.48v-3.87h-1.98v-1.27h1.98v-2.01h1.4v2.01h2.8v1.27h-2.8V155c0 .49.24.74.72.74h1.95V157h-2Zm6.23.13c-.58 0-1.1-.11-1.54-.34a2.47 2.47 0 0 1-1-.97c-.23-.42-.35-.9-.35-1.46v-1.87c0-.56.12-1.05.35-1.46.24-.41.57-.73 1-.96.45-.23.96-.35 1.54-.35.59 0 1.1.12 1.53.35.44.23.77.55 1 .96.24.41.35.9.35 1.46v1.27h-4.42v.6c0 .53.13.93.4 1.21.26.28.65.42 1.15.42.4 0 .74-.07.99-.21.25-.15.4-.36.47-.64h1.39c-.1.6-.42 1.1-.94 1.46-.52.35-1.16.53-1.92.53Zm1.53-4.21v-.44c0-.52-.13-.93-.39-1.21-.26-.29-.64-.43-1.14-.43-.5 0-.88.14-1.15.43-.26.28-.39.69-.39 1.22v.32h3.18l-.1.1Zm12.1 4.21c-.93 0-1.66-.26-2.2-.78a2.81 2.81 0 0 1-.8-2.12h1.38c0 .53.15.94.43 1.24.29.28.69.43 1.2.43s.9-.15 1.2-.43c.28-.3.42-.7.42-1.23v-5.44h-2.23v-1.29h3.62v6.73c0 .9-.27 1.6-.81 2.12-.54.51-1.27.77-2.2.77Zm6.7 0c-.75 0-1.34-.2-1.77-.57a2.05 2.05 0 0 1-.64-1.59c0-.67.23-1.2.68-1.58a2.82 2.82 0 0 1 1.88-.59h2v-.66c0-.4-.13-.7-.37-.91a1.49 1.49 0 0 0-1.03-.33c-.39 0-.71.09-.97.26a.94.94 0 0 0-.46.67h-1.38c.08-.65.38-1.16.89-1.54a3.24 3.24 0 0 1 1.96-.57c.85 0 1.52.22 2.02.65.49.42.74 1 .74 1.74V157h-1.37v-1.31h-.23l.23-.26c0 .52-.2.93-.6 1.25-.4.3-.92.45-1.58.45Zm.41-1.08c.5 0 .92-.13 1.24-.38.33-.26.5-.58.5-.98v-.94h-1.97c-.36 0-.65.1-.87.3-.2.2-.31.47-.31.82 0 .36.12.65.37.87.26.2.6.31 1.04.31Zm4.51 3.29v-9.49h1.4v1.37h.29l-.3.32c0-.56.17-1 .52-1.33a2 2 0 0 1 1.42-.49c.72 0 1.29.24 1.71.73.44.48.65 1.13.65 1.96v2.02c0 .55-.1 1.03-.3 1.44-.19.4-.46.71-.81.94a2.3 2.3 0 0 1-1.25.32c-.58 0-1.05-.16-1.4-.48a1.74 1.74 0 0 1-.54-1.34l.3.32h-.32l.03 1.67v2.04h-1.4Zm2.85-3.43c.46 0 .81-.13 1.06-.4.26-.26.4-.65.4-1.15v-1.87c0-.5-.14-.89-.4-1.15-.25-.26-.6-.4-1.06-.4-.44 0-.8.14-1.06.42-.26.27-.39.64-.39 1.13v1.87c0 .49.13.87.4 1.14.25.27.6.4 1.05.4Zm6.26 1.22c-.75 0-1.34-.2-1.77-.57a2.05 2.05 0 0 1-.64-1.59c0-.67.23-1.2.68-1.58a2.82 2.82 0 0 1 1.88-.59h2v-.66c0-.4-.13-.7-.37-.91a1.49 1.49 0 0 0-1.03-.33c-.39 0-.71.09-.97.26a.93.93 0 0 0-.46.67h-1.38c.08-.65.38-1.16.89-1.54a3.23 3.23 0 0 1 1.96-.57c.85 0 1.52.22 2.02.65.49.42.74 1 .74 1.74V157h-1.37v-1.31h-.23l.23-.26c0 .52-.2.93-.6 1.25-.4.3-.92.45-1.58.45Zm.41-1.08c.5 0 .92-.13 1.24-.38.33-.26.5-.58.5-.98v-.94h-1.97c-.36 0-.65.1-.87.3-.2.2-.31.47-.31.82 0 .36.12.65.37.87.25.2.6.31 1.04.31Zm4.51.95v-7.15h1.4v1.37h.33l-.34.32c0-.57.17-1.02.5-1.34.35-.32.81-.48 1.41-.48.71 0 1.28.23 1.7.69.43.45.64 1.06.64 1.83V157h-1.4v-4.6c0-.47-.13-.83-.38-1.08-.25-.25-.6-.38-1.03-.38-.44 0-.79.14-1.05.4-.25.26-.38.65-.38 1.15V157h-1.4Zm9.82.13c-.58 0-1.09-.11-1.53-.34a2.47 2.47 0 0 1-1-.97c-.24-.42-.35-.9-.35-1.46v-1.87c0-.56.11-1.05.35-1.46.23-.41.57-.73 1-.96.44-.23.95-.35 1.53-.35.6 0 1.1.12 1.54.35.43.23.76.55 1 .96.23.41.35.9.35 1.46v1.27h-4.42v.6c0 .53.13.93.39 1.21.27.28.65.42 1.16.42.4 0 .73-.07.98-.21.25-.15.41-.36.47-.64h1.4c-.11.6-.42 1.1-.94 1.46-.52.35-1.16.53-1.93.53Zm1.54-4.21v-.44c0-.52-.13-.93-.4-1.21-.25-.29-.63-.43-1.14-.43-.5 0-.87.14-1.14.43-.26.28-.4.69-.4 1.22v.32h3.18l-.1.1Zm5.23 4.2c-.51 0-.96-.09-1.35-.25a2.28 2.28 0 0 1-.91-.68 2 2 0 0 1-.38-1.04h1.4c.04.24.17.43.38.58.22.14.5.2.86.2h.56c.42 0 .75-.08.96-.26.22-.17.33-.4.33-.68s-.1-.5-.3-.66c-.2-.16-.48-.27-.86-.32l-.92-.14a3.4 3.4 0 0 1-1.7-.65c-.35-.32-.53-.8-.53-1.42 0-.66.22-1.17.64-1.52.43-.37 1.07-.55 1.91-.55h.5c.74 0 1.33.18 1.78.52.45.34.7.8.76 1.37h-1.4a.74.74 0 0 0-.35-.5 1.4 1.4 0 0 0-.8-.2h-.49c-.4 0-.7.07-.9.23-.18.15-.27.37-.27.66 0 .26.08.46.25.59.16.13.42.22.77.27l.94.16c.81.11 1.4.33 1.77.67.38.33.57.81.57 1.45 0 .68-.22 1.21-.67 1.6-.44.38-1.1.57-1.99.57h-.56Zm7.26.01c-.58 0-1.09-.11-1.53-.34a2.46 2.46 0 0 1-1-.97c-.24-.42-.35-.9-.35-1.46v-1.87c0-.56.11-1.05.35-1.46.23-.41.56-.73 1-.96.44-.23.95-.35 1.53-.35.6 0 1.1.12 1.54.35.43.23.76.55 1 .96.23.41.35.9.35 1.46v1.27h-4.42v.6c0 .53.13.93.39 1.21.27.28.65.42 1.16.42.4 0 .73-.07.98-.21.25-.15.41-.36.47-.64h1.4c-.11.6-.42 1.1-.94 1.46-.52.35-1.16.53-1.93.53Zm1.54-4.21v-.44c0-.52-.13-.93-.4-1.21-.25-.29-.64-.43-1.14-.43-.5 0-.87.14-1.14.43-.26.28-.4.69-.4 1.22v.32h3.18l-.1.1Zm12.55 4.21c-.6 0-1.12-.1-1.56-.32a2.44 2.44 0 0 1-1.03-.97 3.02 3.02 0 0 1-.35-1.48v-1.87c0-.57.11-1.07.35-1.48.24-.42.58-.73 1.03-.95.44-.23.96-.34 1.56-.34.85 0 1.54.22 2.06.68.52.45.8 1.06.82 1.84h-1.4a1.3 1.3 0 0 0-.43-.95 1.55 1.55 0 0 0-1.06-.33c-.47 0-.85.13-1.13.4-.27.26-.41.63-.41 1.12v1.88c0 .49.14.86.41 1.13.28.27.66.4 1.14.4.44 0 .79-.1 1.05-.33s.4-.55.43-.95h1.4c-.03.78-.3 1.4-.82 1.84-.52.46-1.2.68-2.06.68Zm4.15-.13v-9.49h1.4v3.71h.33l-.34.32c0-.57.17-1.02.5-1.34.35-.32.81-.48 1.41-.48.71 0 1.28.23 1.7.69.43.45.64 1.06.64 1.83V157h-1.4v-4.6c0-.47-.13-.83-.38-1.1-.25-.25-.6-.38-1.03-.38-.44 0-.79.14-1.05.41-.25.27-.38.66-.38 1.16V157h-1.4Zm9.1.13c-.74 0-1.33-.2-1.76-.57a2.05 2.05 0 0 1-.64-1.59c0-.67.23-1.2.68-1.58a2.82 2.82 0 0 1 1.88-.59h2v-.66c0-.4-.13-.7-.37-.91a1.49 1.49 0 0 0-1.03-.33c-.39 0-.71.09-.97.26a.94.94 0 0 0-.46.67h-1.38c.08-.65.38-1.16.89-1.54a3.24 3.24 0 0 1 1.96-.57c.85 0 1.52.22 2.01.65.5.42.75 1 .75 1.74V157h-1.37v-1.31h-.23l.23-.26c0 .52-.2.93-.6 1.25-.4.3-.92.45-1.58.45Zm.42-1.08c.5 0 .92-.13 1.24-.38.33-.26.5-.58.5-.98v-.94h-1.97c-.37 0-.66.1-.87.3-.21.2-.31.47-.31.82 0 .36.12.65.37.87.25.2.6.31 1.04.31Zm4.74.95v-7.15h1.36v1.37h.33l-.43.84c0-.77.17-1.35.51-1.74.34-.4.84-.6 1.5-.6.77 0 1.37.24 1.82.72.45.46.67 1.1.67 1.93v.48h-1.44v-.36c0-.51-.13-.9-.4-1.17-.24-.28-.6-.42-1.06-.42-.46 0-.82.14-1.08.42-.25.28-.37.67-.37 1.17V157h-1.4Zm8.88.13c-.75 0-1.34-.2-1.77-.57a2.05 2.05 0 0 1-.64-1.59c0-.67.23-1.2.68-1.58a2.82 2.82 0 0 1 1.88-.59h2v-.66c0-.4-.13-.7-.37-.91a1.49 1.49 0 0 0-1.03-.33c-.39 0-.71.09-.97.26a.94.94 0 0 0-.46.67h-1.38c.08-.65.38-1.16.89-1.54a3.24 3.24 0 0 1 1.96-.57c.85 0 1.52.22 2.01.65.5.42.75 1 .75 1.74V157h-1.37v-1.31h-.23l.23-.26c0 .52-.2.93-.6 1.25-.4.3-.92.45-1.58.45Zm.41-1.08c.5 0 .92-.13 1.24-.38.33-.26.5-.58.5-.98v-.94h-1.97c-.37 0-.65.1-.87.3-.21.2-.31.47-.31.82 0 .36.12.65.37.87.25.2.6.31 1.04.31Zm7.37 1.08c-.59 0-1.11-.1-1.56-.32a2.45 2.45 0 0 1-1.03-.97 3.02 3.02 0 0 1-.35-1.48v-1.87c0-.57.12-1.07.35-1.48.25-.42.59-.73 1.03-.95.45-.23.97-.34 1.56-.34.86 0 1.55.22 2.07.68.52.45.79 1.06.81 1.84h-1.4a1.3 1.3 0 0 0-.43-.95 1.55 1.55 0 0 0-1.05-.33c-.48 0-.85.13-1.13.4-.28.26-.42.63-.42 1.12v1.88c0 .49.14.86.42 1.13.28.27.65.4 1.13.4.44 0 .8-.1 1.05-.33.26-.23.4-.55.43-.95h1.4c-.02.78-.3 1.4-.81 1.84-.52.46-1.21.68-2.07.68Zm7.74-.13c-.65 0-1.16-.18-1.52-.53a1.97 1.97 0 0 1-.54-1.48v-3.87h-1.98v-1.27h1.98v-2.01h1.4v2.01h2.8v1.27h-2.8V155c0 .49.24.74.71.74h1.95V157h-2Zm6.24.13c-.58 0-1.1-.11-1.54-.34a2.47 2.47 0 0 1-1-.97c-.23-.42-.35-.9-.35-1.46v-1.87c0-.56.12-1.05.35-1.46.24-.41.57-.73 1-.96.44-.23.96-.35 1.54-.35.59 0 1.1.12 1.53.35.43.23.77.55 1 .96.24.41.35.9.35 1.46v1.27h-4.42v.6c0 .53.13.93.4 1.21.26.28.65.42 1.15.42.4 0 .74-.07.99-.21.25-.15.4-.36.47-.64h1.39c-.1.6-.42 1.1-.94 1.46-.52.35-1.16.53-1.92.53Zm1.53-4.21v-.44c0-.52-.13-.93-.39-1.21-.26-.29-.64-.43-1.14-.43-.5 0-.88.14-1.15.43-.26.28-.39.69-.39 1.22v.32h3.18l-.1.1Zm2.9 4.08v-7.15h1.36v1.37h.34l-.43.84c0-.77.17-1.35.5-1.74.34-.4.85-.6 1.51-.6.77 0 1.37.24 1.81.72.45.46.68 1.1.68 1.93v.48h-1.45v-.36c0-.51-.13-.9-.39-1.17-.25-.28-.6-.42-1.06-.42-.46 0-.82.14-1.08.42-.25.28-.38.67-.38 1.17V157h-1.4Zm9.35.12c-.51 0-.96-.09-1.35-.25a2.29 2.29 0 0 1-.91-.68c-.22-.3-.34-.64-.38-1.04h1.4c.04.24.17.43.38.58.22.14.5.2.86.2h.56c.42 0 .74-.08.96-.26.22-.17.33-.4.33-.68s-.1-.5-.3-.66c-.2-.16-.48-.27-.86-.32l-.92-.14a3.4 3.4 0 0 1-1.7-.65c-.35-.32-.53-.8-.53-1.42 0-.66.21-1.17.64-1.52.43-.37 1.07-.55 1.91-.55h.5c.74 0 1.33.18 1.78.52.45.34.7.8.76 1.37h-1.4a.74.74 0 0 0-.35-.5 1.4 1.4 0 0 0-.8-.2h-.49c-.4 0-.7.07-.9.23-.18.15-.27.37-.27.66 0 .26.08.46.25.59.16.13.42.22.76.27l.95.16c.81.11 1.4.33 1.77.67.38.33.57.81.57 1.45 0 .68-.22 1.21-.67 1.6-.44.38-1.1.57-2 .57h-.55Z" fill="#989898"/>
    <path d="M345.27 59.35c-2.6 8.15-7.97 12.77-16.62 15.05.6.72 1.55 2.17 1.9 2.92 8.95-2.8 14.77-8.04 17.93-17.04l-3.2-.93Zm-9.64.2-3 .9c3.12 8.65 8.27 14.38 17.64 16.83.48-.88 1.46-2.3 2.18-3-8.9-2-14.3-7.33-16.82-14.73Zm-6.53-1.82v2.95H352v-2.95h-22.9Zm9.82-3.95v5.74h3.1v-5.75h-3.1ZM358.86 61v2.73h11.17V61h-11.17Zm-4.28 6.2v2.85h21.9V67.2h-21.9Zm9.28-1.6v8.13c0 .34-.13.44-.63.47-.5.02-2.4 0-3.92-.08.5.83 1.1 2.18 1.3 3.08 2.07 0 3.67-.05 4.88-.5 1.22-.45 1.6-1.28 1.6-2.88V65.6h-3.23Zm5.25-4.6v.58a16.37 16.37 0 0 1-4.55 4.27c.43.4 1.22 1.18 1.57 1.68a23.34 23.34 0 0 0 6.38-5.18l-1.93-1.5-.67.15h-.8Zm-5.25-7.23v4.55h3.2v-4.55h-3.2Zm-9.18 2.4v6.5h2.95V59h15.56v3.67h3.1v-6.5h-21.6Z" fill="#ECC94B"/>
</svg>
