<svg width="321" height="112" fill="none" xmlns="http://www.w3.org/2000/svg">
    <path d="M13.5 79.5c-3.6 0-6.43-1-8.5-3-2.07-2-3.1-4.72-3.1-8.15h5.35c0 2.03.55 3.62 1.65 4.75 1.1 1.1 2.63 1.65 4.6 1.65 1.97 0 3.5-.55 4.6-1.65 1.1-1.13 1.65-2.7 1.65-4.7V47.45h-8.6V42.5H25.1v25.9c0 3.43-1.05 6.15-3.15 8.15-2.07 1.97-4.88 2.95-8.45 2.95zm23.98 0c-2.87 0-5.13-.73-6.8-2.2-1.63-1.5-2.45-3.53-2.45-6.1 0-2.6.87-4.63 2.6-6.1 1.77-1.5 4.18-2.25 7.25-2.25h7.65V60.3c0-1.5-.47-2.67-1.4-3.5-.93-.83-2.25-1.25-3.95-1.25-1.5 0-2.75.33-3.75 1a3.6 3.6 0 00-1.75 2.55h-5.3a8.32 8.32 0 013.4-5.9c2-1.47 4.52-2.2 7.55-2.2 3.27 0 5.85.83 7.75 2.5 1.9 1.63 2.85 3.87 2.85 6.7V79h-5.25v-5.05h-.9l.9-1c0 2-.77 3.6-2.3 4.8-1.53 1.17-3.57 1.75-6.1 1.75zm1.6-4.15c1.93 0 3.52-.48 4.75-1.45 1.27-1 1.9-2.27 1.9-3.8v-3.6h-7.55c-1.4 0-2.52.38-3.35 1.15-.8.77-1.2 1.82-1.2 3.15 0 1.4.48 2.52 1.45 3.35.97.8 2.3 1.2 4 1.2zM54.66 88V51.5h5.35v5.25h1.15L60.01 58c0-2.17.67-3.87 2-5.1 1.37-1.27 3.18-1.9 5.45-1.9 2.77 0 4.97.93 6.6 2.8 1.67 1.83 2.5 4.35 2.5 7.55v7.75c0 2.13-.38 3.98-1.15 5.55a8.5 8.5 0 01-3.15 3.6 8.88 8.88 0 01-4.8 1.25c-2.23 0-4.03-.62-5.4-1.85a6.68 6.68 0 01-2.05-5.15l1.15 1.25h-1.25l.15 6.4V88h-5.4zm10.95-13.2c1.77 0 3.13-.5 4.1-1.5 1-1.03 1.5-2.52 1.5-4.45v-7.2c0-1.93-.5-3.4-1.5-4.4-.97-1.03-2.33-1.55-4.1-1.55-1.7 0-3.05.53-4.05 1.6-1 1.03-1.5 2.48-1.5 4.35v7.2c0 1.87.5 3.33 1.5 4.4a5.37 5.37 0 004.05 1.55zm22.33 4.7c-2.87 0-5.13-.73-6.8-2.2-1.63-1.5-2.45-3.53-2.45-6.1 0-2.6.87-4.63 2.6-6.1 1.77-1.5 4.18-2.25 7.25-2.25h7.65V60.3c0-1.5-.47-2.67-1.4-3.5-.93-.83-2.25-1.25-3.95-1.25-1.5 0-2.75.33-3.75 1a3.6 3.6 0 00-1.75 2.55h-5.3a8.32 8.32 0 013.4-5.9c2-1.47 4.52-2.2 7.55-2.2 3.27 0 5.85.83 7.75 2.5 1.9 1.63 2.85 3.87 2.85 6.7V79h-5.25v-5.05h-.9l.9-1c0 2-.77 3.6-2.3 4.8-1.53 1.17-3.57 1.75-6.1 1.75zm1.6-4.15c1.93 0 3.52-.48 4.75-1.45 1.27-1 1.9-2.27 1.9-3.8v-3.6h-7.55c-1.4 0-2.52.38-3.35 1.15-.8.77-1.2 1.82-1.2 3.15 0 1.4.48 2.52 1.45 3.35.97.8 2.3 1.2 4 1.2zM105.12 79V51.5h5.35v5.25h1.3l-1.3 1.25c0-2.2.65-3.92 1.95-5.15 1.3-1.23 3.1-1.85 5.4-1.85 2.74 0 4.92.88 6.55 2.65 1.63 1.73 2.45 4.08 2.45 7.05V79h-5.4V61.3c0-1.8-.48-3.18-1.45-4.15a5.34 5.34 0 00-3.95-1.45c-1.7 0-3.05.52-4.05 1.55-.97 1-1.45 2.47-1.45 4.4V79h-5.4zm36.03.5c-2.23 0-4.2-.43-5.9-1.3a9.49 9.49 0 01-3.85-3.75c-.9-1.6-1.35-3.47-1.35-5.6v-7.2c0-2.17.45-4.03 1.35-5.6a9.17 9.17 0 013.85-3.7c1.7-.9 3.67-1.35 5.9-1.35 2.27 0 4.24.45 5.9 1.35a9.16 9.16 0 013.85 3.7c.9 1.57 1.35 3.43 1.35 5.6v4.9h-17v2.3c0 2.03.5 3.58 1.5 4.65 1.04 1.07 2.52 1.6 4.45 1.6 1.57 0 2.84-.27 3.8-.8a3.64 3.64 0 001.8-2.45h5.35a8.33 8.33 0 01-3.6 5.6c-2 1.37-4.46 2.05-7.4 2.05zm5.9-16.2v-1.7c0-2-.5-3.55-1.5-4.65-1-1.1-2.46-1.65-4.4-1.65-1.9 0-3.36.55-4.4 1.65-1 1.1-1.5 2.67-1.5 4.7v1.25l12.2-.05-.4.45zm18.38 16.15c-1.96 0-3.7-.32-5.2-.95a8.77 8.77 0 01-3.5-2.6 7.73 7.73 0 01-1.45-4h5.4c.14.9.62 1.63 1.45 2.2.84.53 1.94.8 3.3.8h2.15c1.64 0 2.87-.33 3.7-1a3.23 3.23 0 001.25-2.65 3 3 0 00-1.15-2.5 6.3 6.3 0 00-3.3-1.25l-3.55-.55c-2.93-.47-5.1-1.3-6.5-2.5-1.36-1.23-2.05-3.05-2.05-5.45 0-2.53.82-4.48 2.45-5.85 1.67-1.4 4.12-2.1 7.35-2.1h1.9c2.87 0 5.15.67 6.85 2a7.24 7.24 0 012.95 5.25h-5.4a2.84 2.84 0 00-1.35-1.95 5.36 5.36 0 00-3.05-.75h-1.9c-1.56 0-2.71.3-3.45.9-.7.57-1.05 1.42-1.05 2.55 0 1 .32 1.75.95 2.25.64.5 1.62.85 2.95 1.05l3.65.6c3.1.43 5.37 1.3 6.8 2.6 1.47 1.27 2.2 3.12 2.2 5.55 0 2.63-.86 4.68-2.6 6.15-1.7 1.47-4.25 2.2-7.65 2.2h-2.15zm26.18.05c-2.23 0-4.2-.43-5.9-1.3a9.49 9.49 0 01-3.85-3.75c-.9-1.6-1.35-3.47-1.35-5.6v-7.2c0-2.17.45-4.03 1.35-5.6a9.17 9.17 0 013.85-3.7c1.7-.9 3.67-1.35 5.9-1.35 2.27 0 4.24.45 5.9 1.35a9.16 9.16 0 013.85 3.7c.9 1.57 1.35 3.43 1.35 5.6v4.9h-17v2.3c0 2.03.5 3.58 1.5 4.65 1.04 1.07 2.52 1.6 4.45 1.6 1.57 0 2.84-.27 3.8-.8a3.64 3.64 0 001.8-2.45h5.35a8.33 8.33 0 01-3.6 5.6c-2 1.37-4.46 2.05-7.4 2.05zm5.9-16.2v-1.7c0-2-.5-3.55-1.5-4.65-1-1.1-2.46-1.65-4.4-1.65-1.9 0-3.36.55-4.4 1.65-1 1.1-1.5 2.67-1.5 4.7v1.25l12.2-.05-.4.45z" fill="#F7F7F7"/>
    <path d="M218.06 79V43.23h6.51l3.58 11.47a46.73 46.73 0 011.47 5.34l.54-2.2c.26-1.02.56-2.07.88-3.14l3.43-11.47H241V79h-5V66.95c0-1.54.03-3.24.1-5.1.1-1.9.23-3.79.4-5.68a615.3 615.3 0 01.92-10.1l-5.29 17.4h-5.1l-5.39-17.4a181.48 181.48 0 01.93 9.8c.14 1.9.25 3.8.35 5.73.1 1.9.15 3.68.15 5.35V79h-5zm36.68.44c-2.22 0-4.15-.42-5.78-1.27a8.98 8.98 0 01-3.78-3.63 11.11 11.11 0 01-1.32-5.54v-6.95c0-2.16.44-4 1.32-5.54a8.98 8.98 0 013.78-3.63 12.37 12.37 0 015.78-1.27c2.22 0 4.15.42 5.78 1.27a8.98 8.98 0 013.78 3.63 10.94 10.94 0 011.32 5.54V69c0 2.13-.44 3.97-1.32 5.54a8.98 8.98 0 01-3.78 3.63 12.37 12.37 0 01-5.78 1.27zm0-4.65c1.8 0 3.19-.5 4.16-1.47.99-1.02 1.48-2.45 1.48-4.32v-6.95c0-1.9-.5-3.34-1.48-4.32-.97-.98-2.36-1.47-4.16-1.47-1.76 0-3.15.5-4.17 1.47-.97.98-1.47 2.42-1.47 4.32V69c0 1.87.5 3.3 1.47 4.32a5.74 5.74 0 004.17 1.47zm12.67 13.03v-4.9h6.76c1.8 0 3.2-.49 4.22-1.47 1.01-.98 1.52-2.37 1.52-4.17V56.9h-11.03v-4.85h16.32v25.28c0 3.24-.98 5.79-2.94 7.65-1.96 1.9-4.6 2.84-7.94 2.84h-6.9zm14.9-40.42c-1.14 0-2.06-.3-2.75-.89a3.15 3.15 0 01-1.02-2.45c0-1.04.34-1.86 1.02-2.45.69-.62 1.6-.93 2.75-.93 1.14 0 2.06.31 2.74.93.69.6 1.03 1.4 1.03 2.45 0 1.02-.34 1.83-1.03 2.45-.68.6-1.6.89-2.74.89zM294.69 79v-4.8h9.45V56.85h-8.23v-4.8h13.38V74.2h8.67V79H294.7zm11.51-31.6c-1.14 0-2.06-.3-2.74-.89a3.15 3.15 0 01-1.03-2.45c0-1.04.34-1.86 1.03-2.45.68-.62 1.6-.93 2.74-.93 1.14 0 2.06.31 2.75.93.68.6 1.02 1.4 1.02 2.45 0 1.02-.34 1.83-1.03 2.45-.68.6-1.6.89-2.74.89z" fill="#ECC94B"/>
    <path d="M2.56 108l2.42-9.49h1.84L9.24 108H7.82l-.57-2.4H4.56L4 108H2.56zm2.26-3.56h2.16l-.65-2.75a109.53 109.53 0 01-.43-2l-.14.74c-.07.36-.17.77-.29 1.25l-.65 2.76zM20.71 108c-.65 0-1.16-.18-1.52-.53a1.97 1.97 0 01-.55-1.48v-3.87h-1.97v-1.27h1.97v-2.02h1.4v2.02h2.8v1.27h-2.8v3.86c0 .5.25.75.72.75h1.95V108h-2zm6.23.12c-.58 0-1.1-.12-1.53-.34a2.38 2.38 0 01-1-.96c-.23-.42-.35-.9-.35-1.47v-1.85c0-.57.12-1.06.35-1.47.23-.41.57-.73 1-.96.43-.22.95-.34 1.53-.34.6 0 1.1.12 1.54.34.43.23.77.55 1 .96.23.41.35.9.35 1.47v1.85c0 .56-.12 1.05-.35 1.47-.23.41-.57.73-1 .96-.43.22-.95.34-1.54.34zm0-1.24c.48 0 .85-.13 1.11-.39.26-.27.39-.65.39-1.14v-1.85c0-.5-.13-.88-.39-1.14-.26-.26-.63-.4-1.1-.4-.47 0-.84.14-1.11.4-.26.26-.39.64-.39 1.14v1.85c0 .5.13.87.39 1.14.27.26.64.4 1.1.4zm7.02 1.24c-.59 0-1.1-.12-1.53-.34a2.38 2.38 0 01-1-.96c-.24-.42-.36-.9-.36-1.47v-1.85c0-.57.12-1.06.35-1.47.24-.41.57-.73 1-.96.44-.22.95-.34 1.54-.34.59 0 1.1.12 1.53.34.44.23.77.55 1 .96.24.41.36.9.36 1.47v1.85c0 .56-.12 1.05-.36 1.47-.23.41-.56.73-1 .96-.43.22-.94.34-1.53.34zm0-1.24c.48 0 .84-.13 1.1-.39.26-.27.4-.65.4-1.14v-1.85c0-.5-.14-.88-.4-1.14-.26-.26-.62-.4-1.1-.4-.47 0-.84.14-1.1.4-.27.26-.4.64-.4 1.14v1.85c0 .5.13.87.4 1.14.26.26.63.4 1.1.4zM42 108c-.44 0-.83-.09-1.16-.26a2.01 2.01 0 01-.78-.77 2.33 2.33 0 01-.27-1.14v-6.05h-2.34v-1.27h3.75v7.32c0 .28.07.5.23.66.16.16.37.24.64.24h2.2V108H42zm3.22 0v-9.49h1.4v5.21h1.27l1.9-2.87h1.58l-2.28 3.43 2.32 3.72H49.8l-1.91-3.07h-1.27V108h-1.4zm6.94 0v-1.27h2.5v-4.6h-2.18v-1.28h3.55v5.88h2.3V108h-6.17zm3.05-8.39c-.3 0-.54-.07-.73-.23a.83.83 0 01-.27-.65c0-.28.1-.5.27-.65.19-.16.43-.25.73-.25s.55.09.73.25c.18.16.27.37.27.65 0 .27-.09.49-.27.65-.18.16-.42.23-.73.23zM62.8 108c-.65 0-1.16-.18-1.52-.53a1.97 1.97 0 01-.55-1.48v-3.87h-1.97v-1.27h1.97v-2.02h1.4v2.02h2.8v1.27h-2.8v3.86c0 .5.24.75.72.75h1.95V108h-2zm14.03 0c-.65 0-1.16-.18-1.52-.53a1.97 1.97 0 01-.55-1.48v-3.87H72.8v-1.27h1.97v-2.02h1.4v2.02h2.8v1.27h-2.8v3.86c0 .5.24.75.72.75h1.95V108h-2zm6.23.12c-.59 0-1.1-.12-1.53-.34a2.38 2.38 0 01-1-.96c-.23-.42-.35-.9-.35-1.47v-1.85c0-.57.12-1.06.35-1.47.23-.41.57-.73 1-.96.43-.22.94-.34 1.53-.34.6 0 1.1.12 1.54.34.43.23.77.55 1 .96.23.41.35.9.35 1.47v1.85c0 .56-.12 1.05-.35 1.47-.23.41-.57.73-1 .96-.44.22-.95.34-1.54.34zm0-1.24c.48 0 .85-.13 1.1-.39.27-.27.4-.65.4-1.14v-1.85c0-.5-.13-.88-.4-1.14-.25-.26-.62-.4-1.1-.4-.46 0-.83.14-1.1.4-.26.26-.4.64-.4 1.14v1.85c0 .5.14.87.4 1.14.27.26.64.4 1.1.4zM96.17 108l-2.36-7.15h1.42l1.47 4.58a11.04 11.04 0 01.42 1.46l.17-.64.23-.82 1.45-4.58h1.41L98.02 108h-1.85zm7.22.13c-.74 0-1.33-.2-1.76-.57a2.05 2.05 0 01-.64-1.59c0-.67.22-1.2.68-1.58a2.82 2.82 0 011.88-.59h1.99v-.66c0-.4-.12-.7-.37-.91a1.49 1.49 0 00-1.02-.33c-.4 0-.72.09-.98.26a.93.93 0 00-.45.67h-1.38c.08-.64.37-1.16.88-1.54a3.23 3.23 0 011.97-.57c.85 0 1.52.22 2.01.65.5.42.74 1 .74 1.74V108h-1.36v-1.31h-.24l.24-.26c0 .52-.2.93-.6 1.24-.4.3-.93.46-1.59.46zm.42-1.08c.5 0 .91-.13 1.23-.38.33-.26.5-.59.5-.98v-.94h-1.96c-.37 0-.66.1-.88.3-.2.2-.3.47-.3.82 0 .36.12.65.37.87.25.2.6.31 1.04.31zm8.34.95c-.44 0-.83-.09-1.16-.26a2 2 0 01-.78-.77 2.33 2.33 0 01-.27-1.14v-6.05h-2.34v-1.27h3.75v7.32c0 .28.07.5.23.66.16.16.37.24.64.24h2.2V108h-2.27zm3.14 0v-1.27h2.51v-4.6h-2.18v-1.28h3.55v5.88h2.3V108h-6.18zm3.06-8.39c-.3 0-.55-.07-.73-.23a.83.83 0 01-.27-.65c0-.28.09-.5.27-.65.18-.16.42-.25.73-.25.3 0 .54.09.73.25.18.16.27.37.27.65 0 .27-.1.49-.27.65-.19.16-.43.23-.73.23zm6.3 8.52a2.2 2.2 0 01-1.73-.73 2.84 2.84 0 01-.65-1.96v-2.02c0-.83.21-1.49.65-1.97.43-.49 1-.73 1.73-.73.59 0 1.05.17 1.4.5.35.31.52.76.52 1.32l-.3-.33h.33l-.04-1.66v-2.04h1.4V108h-1.39v-1.36h-.3l.3-.33c0 .56-.17 1.01-.52 1.34-.35.32-.81.48-1.4.48zm.48-1.22c.44 0 .79-.14 1.04-.4.26-.28.39-.66.39-1.15v-1.87c0-.49-.13-.86-.4-1.13-.24-.28-.59-.42-1.03-.42-.46 0-.82.14-1.08.4-.26.27-.4.65-.4 1.15v1.87c0 .5.14.89.4 1.16.26.26.62.39 1.08.39zm6.32 1.22c-.74 0-1.33-.2-1.76-.57a2.05 2.05 0 01-.64-1.59c0-.67.22-1.2.67-1.58a2.82 2.82 0 011.89-.59h1.99v-.66c0-.4-.12-.7-.36-.91a1.49 1.49 0 00-1.03-.33c-.4 0-.72.09-.98.26a.93.93 0 00-.45.67h-1.38c.08-.64.37-1.16.88-1.54a3.23 3.23 0 011.97-.57c.85 0 1.52.22 2.01.65.5.42.74 1 .74 1.74V108h-1.36v-1.31h-.24l.24-.26c0 .52-.2.93-.6 1.24-.4.3-.93.46-1.59.46zm.42-1.08c.5 0 .91-.13 1.23-.38.33-.26.5-.59.5-.98v-.94h-1.96c-.37 0-.66.1-.88.3-.2.2-.3.47-.3.82 0 .36.12.65.37.87.25.2.6.31 1.04.31zm8.1.95c-.66 0-1.16-.18-1.53-.53a1.97 1.97 0 01-.54-1.48v-3.87h-1.98v-1.27h1.98v-2.02h1.4v2.02h2.8v1.27h-2.8v3.86c0 .5.24.75.72.75h1.95V108h-2zm6.23.13c-.58 0-1.1-.11-1.54-.34a2.47 2.47 0 01-1-.97c-.23-.42-.35-.9-.35-1.46v-1.87c0-.56.12-1.05.35-1.46.24-.41.57-.73 1-.96.45-.23.96-.35 1.54-.35.59 0 1.1.12 1.53.35.44.23.77.55 1 .96.24.41.35.9.35 1.46v1.27h-4.42v.6c0 .53.13.93.4 1.21.26.28.65.42 1.15.42.4 0 .74-.07.99-.21.25-.15.4-.36.47-.64h1.39c-.1.6-.42 1.1-.94 1.46-.52.35-1.16.53-1.92.53zm1.53-4.21v-.44c0-.52-.13-.93-.39-1.21-.26-.29-.64-.43-1.14-.43-.5 0-.88.14-1.15.43-.26.28-.39.69-.39 1.22v.32h3.18l-.1.1zm12.1 4.21c-.93 0-1.66-.26-2.2-.78a2.81 2.81 0 01-.8-2.12h1.38c0 .53.15.94.43 1.24.29.28.69.42 1.2.42s.9-.14 1.2-.42c.28-.3.42-.7.42-1.23V99.8h-2.23V98.5h3.62v6.73c0 .9-.27 1.6-.81 2.12-.54.51-1.27.77-2.2.77zm6.7 0c-.75 0-1.34-.2-1.77-.57a2.05 2.05 0 01-.64-1.59c0-.67.23-1.2.68-1.58a2.82 2.82 0 011.88-.59h2v-.66c0-.4-.13-.7-.37-.91a1.49 1.49 0 00-1.03-.33c-.39 0-.71.09-.97.26a.94.94 0 00-.46.67h-1.38c.08-.64.38-1.16.89-1.54a3.24 3.24 0 011.96-.57c.85 0 1.52.22 2.02.65.49.42.74 1 .74 1.74V108h-1.37v-1.31h-.23l.23-.26c0 .52-.2.93-.6 1.24-.4.3-.92.46-1.58.46zm.41-1.08c.5 0 .92-.13 1.24-.38.33-.26.5-.59.5-.98v-.94h-1.97c-.36 0-.65.1-.87.3-.2.2-.31.47-.31.82 0 .36.12.65.37.87.26.2.6.31 1.04.31zm4.51 3.29v-9.49h1.4v1.37h.29l-.3.32c0-.56.17-1 .52-1.33a2 2 0 011.42-.49c.72 0 1.29.24 1.71.73.44.47.65 1.13.65 1.96v2.02c0 .55-.1 1.03-.3 1.44-.19.4-.46.71-.81.94a2.3 2.3 0 01-1.25.32c-.58 0-1.05-.16-1.4-.48a1.74 1.74 0 01-.54-1.34l.3.33h-.32l.03 1.66v2.04h-1.4zm2.85-3.43c.46 0 .81-.13 1.06-.4.26-.26.4-.65.4-1.15v-1.87c0-.5-.14-.88-.4-1.14-.25-.27-.6-.4-1.06-.4-.45 0-.8.13-1.06.4-.26.28-.39.65-.39 1.14v1.87c0 .49.13.87.4 1.14.25.27.6.4 1.05.4zm6.26 1.22c-.75 0-1.34-.2-1.77-.57a2.05 2.05 0 01-.64-1.59c0-.67.23-1.2.68-1.58a2.82 2.82 0 011.88-.59h2v-.66c0-.4-.13-.7-.37-.91a1.49 1.49 0 00-1.03-.33c-.39 0-.71.09-.97.26a.93.93 0 00-.46.67h-1.38c.08-.64.38-1.16.89-1.54a3.23 3.23 0 011.96-.57c.85 0 1.52.22 2.02.65.49.42.74 1 .74 1.74V108h-1.37v-1.31h-.23l.23-.26c0 .52-.2.93-.6 1.24-.4.3-.92.46-1.58.46zm.41-1.08c.5 0 .92-.13 1.24-.38.33-.26.5-.59.5-.98v-.94h-1.97c-.36 0-.65.1-.87.3-.2.2-.31.47-.31.82 0 .36.12.65.37.87.25.2.6.31 1.04.31zm4.51.95v-7.15h1.4v1.37h.33l-.34.32c0-.57.17-1.02.5-1.34.35-.32.81-.48 1.41-.48.71 0 1.28.23 1.7.69.43.45.64 1.06.64 1.83V108h-1.4v-4.6c0-.47-.13-.83-.38-1.08-.25-.25-.6-.38-1.03-.38-.44 0-.79.14-1.05.4-.25.27-.38.65-.38 1.15V108h-1.4zm9.82.13c-.58 0-1.09-.11-1.53-.34a2.47 2.47 0 01-1-.97c-.24-.42-.35-.9-.35-1.46v-1.87c0-.56.11-1.05.35-1.46.23-.41.57-.73 1-.96.44-.23.95-.35 1.53-.35.6 0 1.1.12 1.54.35.43.23.76.55 1 .96.23.41.35.9.35 1.46v1.27h-4.42v.6c0 .53.13.93.39 1.21.27.28.65.42 1.16.42.4 0 .73-.07.98-.21.25-.15.41-.36.47-.64h1.4c-.11.6-.42 1.1-.94 1.46-.52.35-1.16.53-1.93.53zm1.54-4.21v-.44c0-.52-.13-.93-.4-1.21-.25-.29-.63-.43-1.14-.43-.5 0-.87.14-1.14.43-.26.28-.4.69-.4 1.22v.32h3.18l-.1.1zm5.23 4.2c-.51 0-.96-.09-1.35-.25a2.28 2.28 0 01-.91-.68 2 2 0 01-.38-1.04h1.4c.04.24.17.43.38.58.22.13.5.2.86.2h.56c.42 0 .75-.08.96-.26.22-.17.33-.4.33-.69 0-.27-.1-.49-.3-.65-.2-.16-.48-.27-.86-.32l-.92-.14a3.4 3.4 0 01-1.7-.65c-.35-.32-.53-.8-.53-1.42 0-.66.22-1.17.64-1.52.43-.36 1.07-.55 1.91-.55h.5c.74 0 1.34.18 1.78.52.45.34.7.8.76 1.37h-1.4a.74.74 0 00-.35-.5 1.4 1.4 0 00-.8-.2h-.49c-.4 0-.7.07-.9.23-.18.15-.27.37-.27.66 0 .26.08.46.25.59.16.13.42.22.77.27l.95.16c.8.11 1.39.34 1.76.67.38.33.57.81.57 1.45 0 .68-.22 1.21-.67 1.6-.44.38-1.1.57-1.99.57h-.56zm7.26.01c-.58 0-1.09-.11-1.53-.34a2.46 2.46 0 01-1-.97c-.24-.42-.35-.9-.35-1.46v-1.87c0-.56.11-1.05.35-1.46.23-.41.56-.73 1-.96.44-.23.95-.35 1.53-.35.6 0 1.1.12 1.54.35.43.23.76.55 1 .96.23.41.35.9.35 1.46v1.27h-4.42v.6c0 .53.13.93.39 1.21.27.28.65.42 1.16.42.4 0 .73-.07.98-.21.25-.15.41-.36.47-.64h1.4c-.11.6-.42 1.1-.94 1.46-.52.35-1.16.53-1.93.53zm1.54-4.21v-.44c0-.52-.13-.93-.4-1.21-.25-.29-.63-.43-1.14-.43-.5 0-.87.14-1.14.43-.26.28-.4.69-.4 1.22v.32h3.18l-.1.1zm12.54 4.21c-.59 0-1.1-.1-1.56-.32a2.44 2.44 0 01-1.02-.97 3.02 3.02 0 01-.35-1.48v-1.87c0-.57.11-1.07.35-1.48.24-.42.58-.73 1.02-.95.46-.23.97-.34 1.56-.34.86 0 1.55.22 2.07.68.52.45.8 1.06.82 1.84h-1.4a1.3 1.3 0 00-.43-.95 1.55 1.55 0 00-1.06-.34c-.47 0-.85.14-1.13.4-.27.27-.41.64-.41 1.13v1.88c0 .49.14.86.41 1.13.28.27.66.4 1.13.4.45 0 .8-.1 1.06-.33s.4-.55.43-.95h1.4c-.03.78-.3 1.4-.82 1.84-.52.45-1.2.68-2.06.68zm4.16-.13v-9.49h1.4v3.71h.33l-.34.32c0-.57.17-1.02.5-1.34.35-.32.81-.48 1.41-.48.71 0 1.28.23 1.7.69.43.45.64 1.06.64 1.83V108h-1.4v-4.6c0-.47-.13-.83-.38-1.1-.25-.25-.6-.38-1.03-.38-.44 0-.79.14-1.05.41-.25.27-.38.66-.38 1.16V108h-1.4zm9.1.13c-.74 0-1.33-.2-1.76-.57a2.05 2.05 0 01-.64-1.59c0-.67.23-1.2.68-1.58a2.82 2.82 0 011.88-.59h2v-.66c0-.4-.13-.7-.37-.91a1.49 1.49 0 00-1.03-.33c-.39 0-.71.09-.97.26a.94.94 0 00-.46.67h-1.38c.08-.64.38-1.16.89-1.54a3.24 3.24 0 011.96-.57c.85 0 1.52.22 2.02.65.49.42.74 1 .74 1.74V108h-1.37v-1.31h-.23l.23-.26c0 .52-.2.93-.6 1.24-.4.3-.92.46-1.58.46zm.42-1.08c.5 0 .92-.13 1.24-.38.33-.26.5-.59.5-.98v-.94h-1.97c-.37 0-.66.1-.87.3-.21.2-.31.47-.31.82 0 .36.12.65.37.87.25.2.6.31 1.04.31zm4.74.95v-7.15h1.35v1.37h.34l-.43.84c0-.77.17-1.35.51-1.74.34-.4.84-.6 1.5-.6.77 0 1.37.24 1.82.72.45.46.67 1.1.67 1.93v.48h-1.44v-.36c0-.51-.13-.9-.4-1.17-.24-.28-.6-.42-1.06-.42-.46 0-.82.14-1.08.42-.25.28-.37.67-.37 1.17V108h-1.4zm8.88.13c-.75 0-1.34-.2-1.77-.57a2.05 2.05 0 01-.64-1.59c0-.67.23-1.2.68-1.58a2.82 2.82 0 011.88-.59h2v-.66c0-.4-.13-.7-.37-.91a1.49 1.49 0 00-1.03-.33c-.39 0-.71.09-.97.26a.94.94 0 00-.46.67h-1.38c.08-.64.38-1.16.89-1.54a3.24 3.24 0 011.96-.57c.85 0 1.52.22 2.01.65.5.42.75 1 .75 1.74V108h-1.37v-1.31h-.23l.23-.26c0 .52-.2.93-.6 1.24-.4.3-.92.46-1.58.46zm.41-1.08c.5 0 .92-.13 1.24-.38.33-.26.5-.59.5-.98v-.94h-1.97c-.36 0-.65.1-.87.3-.21.2-.31.47-.31.82 0 .36.12.65.37.87.25.2.6.31 1.04.31zm7.37 1.08c-.59 0-1.11-.1-1.56-.32a2.45 2.45 0 01-1.03-.97 3.02 3.02 0 01-.35-1.48v-1.87c0-.57.12-1.07.35-1.48.24-.42.59-.73 1.03-.95.45-.23.97-.34 1.56-.34.86 0 1.55.22 2.07.68.52.45.79 1.06.81 1.84h-1.4a1.3 1.3 0 00-.43-.95 1.55 1.55 0 00-1.05-.34c-.48 0-.85.14-1.13.4-.28.27-.42.64-.42 1.13v1.88c0 .49.14.86.42 1.13.28.27.65.4 1.13.4.44 0 .8-.1 1.05-.33.26-.23.4-.55.43-.95h1.4c-.02.78-.3 1.4-.81 1.84-.52.45-1.21.68-2.07.68zm7.74-.13c-.65 0-1.16-.18-1.52-.53a1.97 1.97 0 01-.54-1.48v-3.87h-1.98v-1.27h1.98v-2.02h1.4v2.02h2.8v1.27h-2.8v3.86c0 .5.24.75.71.75h1.95V108h-2zm6.24.13c-.58 0-1.1-.11-1.54-.34a2.47 2.47 0 01-1-.97c-.23-.42-.35-.9-.35-1.46v-1.87c0-.56.12-1.05.35-1.46.24-.41.57-.73 1-.96.44-.23.96-.35 1.54-.35.59 0 1.1.12 1.53.35.43.23.77.55 1 .96.24.41.35.9.35 1.46v1.27h-4.42v.6c0 .53.13.93.4 1.21.26.28.65.42 1.15.42.4 0 .74-.07.99-.21.25-.15.4-.36.47-.64h1.39c-.1.6-.42 1.1-.94 1.46-.52.35-1.16.53-1.92.53zm1.53-4.21v-.44c0-.52-.13-.93-.39-1.21-.26-.29-.64-.43-1.14-.43-.5 0-.88.14-1.15.43-.26.28-.39.69-.39 1.22v.32h3.18l-.1.1zm2.9 4.08v-7.15h1.36v1.37h.34l-.43.84c0-.77.17-1.35.5-1.74.34-.4.85-.6 1.51-.6.77 0 1.37.24 1.81.72.45.46.68 1.1.68 1.93v.48h-1.45v-.36c0-.51-.13-.9-.39-1.17-.25-.28-.6-.42-1.06-.42-.46 0-.82.14-1.08.42-.25.28-.38.67-.38 1.17V108h-1.4zm9.35.12c-.51 0-.96-.09-1.35-.25a2.29 2.29 0 01-.91-.68c-.22-.3-.34-.64-.38-1.04h1.4c.04.24.17.43.38.58.22.13.5.2.86.2h.56c.42 0 .74-.08.96-.26.22-.17.33-.4.33-.69 0-.27-.1-.49-.3-.65-.2-.16-.48-.27-.86-.32l-.92-.14a3.4 3.4 0 01-1.7-.65c-.35-.32-.53-.8-.53-1.42 0-.66.21-1.17.64-1.52.43-.36 1.07-.55 1.91-.55h.5c.74 0 1.33.18 1.78.52.45.34.7.8.76 1.37h-1.4a.74.74 0 00-.35-.5 1.4 1.4 0 00-.8-.2h-.49c-.4 0-.7.07-.9.23-.18.15-.27.37-.27.66 0 .26.08.46.25.59.16.13.42.22.76.27l.95.16c.81.11 1.4.34 1.77.67.38.33.57.81.57 1.45 0 .68-.22 1.21-.67 1.6-.44.38-1.1.57-2 .57h-.55z" fill="#C4C4C4"/>
    <path d="M259.27 10.35c-2.6 8.15-7.97 12.78-16.62 15.05.6.73 1.55 2.18 1.9 2.93 8.95-2.8 14.77-8.05 17.93-17.05l-3.2-.93zm-9.64.2l-3 .9c3.12 8.65 8.27 14.38 17.64 16.82.48-.87 1.46-2.3 2.18-3-8.9-2-14.3-7.32-16.82-14.72zm-6.53-1.83v2.96H266V8.71h-22.9zm9.83-3.95v5.76h3.1V4.78h-3.1zM272.85 12v2.72h11.17V12h-11.17zm-4.28 6.2v2.85h21.9V18.2h-21.9zm9.28-1.6v8.13c0 .34-.13.45-.63.47-.5.03-2.4 0-3.92-.07.5.82 1.1 2.17 1.3 3.07 2.07 0 3.67-.05 4.88-.5 1.22-.45 1.6-1.27 1.6-2.88V16.6h-3.23zm5.25-4.6v.57a16.37 16.37 0 01-4.55 4.28c.43.4 1.22 1.17 1.57 1.67a23.34 23.34 0 006.38-5.17l-1.93-1.5-.67.15h-.8zm-5.25-7.22v4.54h3.2V4.78h-3.2zm-9.18 2.4v6.5h2.95V10h15.56v3.68h3.1v-6.5h-21.6z" fill="#ECC94B"/>
</svg>
